<?xml version="1.0" encoding="utf-8"?>
<svg xmlns="http://www.w3.org/2000/svg" viewBox="0 0 26 26" width="32" height="32">
  <path d="M12.3125 0C12.011719 0 11.699219 -0.0117188 11.5 0.1875L0.5 8.6875C0.199219 8.988281 -0.0078125 9.289063 0.09375 9.6875C0.195313 10.085938 0.511719 10.398438 0.8125 10.5L4.6875 11.5L0.5 14.71875C0.203125 14.949219 0.0625 15.328125 0.136719 15.699219C0.207031 16.070313 0.480469 16.367188 0.84375 16.46875L4.71875 17.46875L0.5 20.71875C0.203125 20.949219 0.0625 21.328125 0.136719 21.699219C0.207031 22.070313 0.480469 22.367188 0.84375 22.46875L14.25 25.96875C14.585938 26.054688 14.9375 25.957031 15.1875 25.71875L25.6875 15.9375C25.96875 15.675781 26.074219 15.277344 25.960938 14.910156C25.847656 14.546875 25.535156 14.277344 25.15625 14.21875L21.71875 13.65625L25.6875 9.9375C25.96875 9.675781 26.074219 9.277344 25.960938 8.910156C25.847656 8.546875 25.535156 8.277344 25.15625 8.21875L21.8125 7.625L25.8125 3.90625C26.011719 3.707031 26.101563 3.304688 26 2.90625C25.898438 2.507813 25.585938 2.289063 25.1875 2.1875 Z M 19.96875 9.34375L22.84375 9.84375L14.21875 17.90625L3.3125 15.0625L7.125 12.125L14.3125 14L14.59375 14C14.894531 14 15.113281 13.886719 15.3125 13.6875 Z M 19.875 15.34375L22.84375 15.84375L14.21875 23.90625L3.34375 21.0625L7.1875 18.125L14.25 19.96875C14.585938 20.054688 14.9375 19.957031 15.1875 19.71875Z" fill="#8E8E98" />
</svg>