<?xml version="1.0" encoding="utf-8"?>
<svg xmlns="http://www.w3.org/2000/svg" viewBox="0 0 26 26" width="32" height="32">
  <path d="M6.875 0C6.5 0 6.074219 0.242188 5.9375 0.5625L1.3125 11.28125C0.917969 12.199219 1.160156 13 1.84375 13L24.1875 13C24.871094 13 25.078125 12.199219 24.6875 11.28125L20.0625 0.5625C19.925781 0.242188 19.5 0 19.125 0 Z M 12 14C11.449219 14 10 14.527344 10 16C10 18.792969 11.679688 19.054688 11.9375 23L9 23C8.449219 23 8 23.449219 8 24L6 24C5.449219 24 5 24.449219 5 25L5 26L21 26L21 25C21 24.449219 20.550781 24 20 24L18 24C18 23.449219 17.550781 23 17 23L14.0625 23C14.324219 19.089844 16 18.796875 16 16C16 14.546875 14.550781 14 14 14Z" fill="#8E8E98" />
</svg>